<?xml version="1.0" encoding="UTF-8"?>
<!DOCTYPE svg PUBLIC "-//W3C//DTD SVG 1.1//EN" "http://www.w3.org/Graphics/SVG/1.1/DTD/svg11.dtd">
<svg xmlns="http://www.w3.org/2000/svg" xmlns:xlink="http://www.w3.org/1999/xlink" version="1.1" width="437px" height="752px" viewBox="-0.5 -0.5 437 752"><defs/><g><path d="M 144.44 271.97 L 144.4 705.1 L 298.03 705.12" fill="none" stroke="rgb(0, 0, 0)" stroke-width="4" stroke-miterlimit="10" stroke-dasharray="12 12" pointer-events="stroke"/><path d="M 144.44 264.47 L 149.44 274.47 L 144.44 271.97 L 139.44 274.47 Z" fill="rgb(0, 0, 0)" stroke="rgb(0, 0, 0)" stroke-width="4" stroke-miterlimit="10" pointer-events="all"/><path d="M 305.53 705.12 L 295.53 710.12 L 298.03 705.12 L 295.53 700.12 Z" fill="rgb(0, 0, 0)" stroke="rgb(0, 0, 0)" stroke-width="4" stroke-miterlimit="10" pointer-events="all"/><rect x="0" y="0" width="288.89" height="260" fill="none" stroke="none" pointer-events="all"/><path d="M 13.47 205.41 C 9.61 205.05 6.06 203.21 3.61 200.29 C 1.15 197.36 0 193.61 0.41 189.85 L 0.41 14.48 C 1.01 7.24 6.67 1.37 14.05 0.34 L 272.35 0.34 C 280.85 0 288.12 6.22 288.89 14.48 L 288.6 192.68 C 286.9 200.19 280.23 205.64 272.35 205.97 L 181.8 205.97 L 177.73 222.1 C 176.78 225.82 177.42 229.75 179.5 233 C 181.57 236.26 184.92 238.55 188.76 239.35 C 197.53 242.26 206.79 243.51 216.04 243.03 L 232.88 243.03 L 232.88 260 L 44.52 260 L 44.52 243.03 L 64.55 243.03 C 75.03 243.09 85.44 241.37 95.31 237.94 C 103.07 236.12 107.87 228.54 106.05 220.97 L 103.44 205.97 Z M 21.88 185.04 L 266.54 185.04 L 266.54 22.12 L 21.88 22.12 Z" fill="#00188d" stroke="none" pointer-events="all"/><path d="M 298.03 383.5 L 225 383.5 L 140 384" fill="none" stroke="rgb(0, 0, 0)" stroke-width="4" stroke-miterlimit="10" stroke-dasharray="12 12" pointer-events="stroke"/><path d="M 305.53 383.5 L 295.53 388.5 L 298.03 383.5 L 295.53 378.5 Z" fill="rgb(0, 0, 0)" stroke="rgb(0, 0, 0)" stroke-width="4" stroke-miterlimit="10" pointer-events="all"/><rect x="310" y="338.38" width="125.33" height="90.24" fill="none" stroke="none" pointer-events="all"/><path d="M 313.75 428.62 C 311.52 428.18 310 426.1 310.24 423.83 L 310.24 342.54 C 310.31 340.5 311.76 338.79 313.75 338.38 L 431.58 338.38 C 433.57 338.79 435.02 340.5 435.09 342.54 L 435.09 423.83 C 435.33 426.1 433.81 428.18 431.58 428.62 Z M 321.02 417.78 L 424.44 417.78 L 424.44 349.34 L 321.02 349.34 Z M 325.28 388.67 L 325.28 383.25 L 329.17 383.25 L 336.06 369.01 L 347.84 381.86 L 361.13 355.27 L 382.57 401.27 L 407.51 364.97 L 416.79 394.21 L 420.17 394.21 L 420.17 399.63 L 412.78 399.63 L 405.76 376.82 L 381.82 411.86 L 361.01 367.49 L 349.35 391.31 L 337.31 378.21 L 332.3 388.54 Z" fill="#00188d" stroke="none" pointer-events="all"/><path d="M 298.03 545.12 L 225 545.1 L 140 545" fill="none" stroke="rgb(0, 0, 0)" stroke-width="4" stroke-miterlimit="10" stroke-dasharray="12 12" pointer-events="stroke"/><path d="M 305.53 545.12 L 295.53 550.12 L 298.03 545.12 L 295.53 540.12 Z" fill="rgb(0, 0, 0)" stroke="rgb(0, 0, 0)" stroke-width="4" stroke-miterlimit="10" pointer-events="all"/><rect x="310" y="500" width="125.33" height="90.24" fill="none" stroke="none" pointer-events="all"/><path d="M 313.75 590.24 C 311.52 589.8 310 587.72 310.24 585.45 L 310.24 504.16 C 310.31 502.12 311.76 500.41 313.75 500 L 431.58 500 C 433.57 500.41 435.02 502.12 435.09 504.16 L 435.09 585.45 C 435.33 587.72 433.81 589.8 431.58 590.24 Z M 321.02 579.4 L 424.44 579.4 L 424.44 510.96 L 321.02 510.96 Z M 325.28 550.29 L 325.28 544.87 L 329.17 544.87 L 336.06 530.63 L 347.84 543.48 L 361.13 516.89 L 382.57 562.89 L 407.51 526.59 L 416.79 555.83 L 420.17 555.83 L 420.17 561.25 L 412.78 561.25 L 405.76 538.44 L 381.82 573.48 L 361.01 529.11 L 349.35 552.93 L 337.31 539.83 L 332.3 550.16 Z" fill="#00188d" stroke="none" pointer-events="all"/><rect x="310" y="660" width="125.33" height="90.24" fill="none" stroke="none" pointer-events="all"/><path d="M 313.75 750.24 C 311.52 749.8 310 747.72 310.24 745.45 L 310.24 664.16 C 310.31 662.12 311.76 660.41 313.75 660 L 431.58 660 C 433.57 660.41 435.02 662.12 435.09 664.16 L 435.09 745.45 C 435.33 747.72 433.81 749.8 431.58 750.24 Z M 321.02 739.4 L 424.44 739.4 L 424.44 670.96 L 321.02 670.96 Z M 325.28 710.29 L 325.28 704.87 L 329.17 704.87 L 336.06 690.63 L 347.84 703.48 L 361.13 676.89 L 382.57 722.89 L 407.51 686.59 L 416.79 715.83 L 420.17 715.83 L 420.17 721.25 L 412.78 721.25 L 405.76 698.44 L 381.82 733.48 L 361.01 689.11 L 349.35 712.93 L 337.31 699.83 L 332.3 710.16 Z" fill="#00188d" stroke="none" pointer-events="all"/></g></svg>